<svg width="20" height="20" viewBox="0 0 20 20" fill="none" xmlns="http://www.w3.org/2000/svg">
<path d="M14.8742 17.4286C13.9282 18.3389 12.8845 18.197 11.8897 17.7678C10.8321 17.33 9.86516 17.3023 8.74817 17.7678C7.35716 18.3631 6.61889 18.1901 5.78114 17.4286C1.05136 12.6006 1.74948 5.24605 7.12503 4.96917C8.42877 5.03839 9.34157 5.68386 10.1095 5.7375C11.2509 5.50735 12.3435 4.84803 13.5652 4.93456C15.033 5.05223 16.1308 5.62675 16.8638 6.65985C13.8445 8.45955 14.56 12.4051 17.3333 13.5126C16.7783 14.9575 16.0662 16.3852 14.8725 17.4408L14.8742 17.4286ZM10.0048 4.91725C9.86342 2.77145 11.6175 1.00636 13.635 0.833313C13.9125 3.3079 11.3661 5.15952 10.0048 4.91725Z" fill="black"/>
</svg>
