<svg xmlns="http://www.w3.org/2000/svg"  viewBox="0 0 24 24" width="24px" height="24px"><path d="M 11.5 3 C 6.259214 3 2 7.2592178 2 12.5 C 2 17.740782 6.259214 22 11.5 22 C 16.740786 22 21 17.740782 21 12.5 C 21 7.2592178 16.740786 3 11.5 3 z M 11.5 4 C 16.200346 4 20 7.7996569 20 12.5 C 20 17.200343 16.200346 21 11.5 21 C 6.7996538 21 3 17.200343 3 12.5 C 3 7.7996569 6.7996538 4 11.5 4 z M 11.5 7 A 0.5 0.5 0 0 0 11.5 8 A 0.5 0.5 0 0 0 11.5 7 z M 11.492188 9.9921875 A 0.50005 0.50005 0 0 0 11 10.5 L 11 17.5 A 0.50005 0.50005 0 1 0 12 17.5 L 12 10.5 A 0.50005 0.50005 0 0 0 11.492188 9.9921875 z"/></svg>